<?xml version="1.0" encoding="UTF-8" standalone="no"?>
<svg viewBox="0 0 500 500" version="1.1" id="svg13" xmlns:sodipodi-0.dtd="http://sodipodi.sourceforge.net/DTD/sodipodi-0.dtd" xmlns:sodipodi-0.dtd="http://sodipodi.sourceforge.net/DTD/sodipodi-0.dtd" sodipodi-0.dtd:docname="base_logo_surf_reader_no_text.svg" xmlns:inkscape="http://www.inkscape.org/namespaces/inkscape" xmlns:inkscape="http://www.inkscape.org/namespaces/inkscape" inkscape:version="1.4.3 (0d15f75, 2025-12-25)" inkscape:export-filename="logo_surf_reader_no_text.png" inkscape:export-xdpi="96" inkscape:export-ydpi="96" xmlns:sodipodi="http://sodipodi.sourceforge.net/DTD/sodipodi-0.dtd" xmlns="http://www.w3.org/2000/svg" xmlns:svg="http://www.w3.org/2000/svg" xmlns:bx="https://boxy-svg.com">
  <namedview id="namedview13" pagecolor="#ffffff" bordercolor="#000000" borderopacity="0.25" inkscape:showpageshadow="2" inkscape:pageopacity="0.0" inkscape:pagecheckerboard="0" inkscape:deskcolor="#d1d1d1" showguides="true" inkscape:export-bgcolor="#ffffffff" inkscape:zoom="1.2445079" inkscape:cx="-82.763635" inkscape:cy="258.7368" inkscape:window-width="2560" inkscape:window-height="1307" inkscape:window-x="2560" inkscape:window-y="30" inkscape:window-maximized="1" inkscape:current-layer="svg13">
    <guide position="429.54545,165.90909" orientation="0,-1" id="guide13" inkscape:locked="false"></guide>
    <guide position="0.90397174,494.77705" orientation="0,-1" id="guide1" inkscape:locked="false"></guide>
    <guide position="5.0220652,486.1391" orientation="1,0" id="guide2" inkscape:locked="false"></guide>
  </namedview>
  <defs id="defs2">
    <linearGradient xmlns:boxy-svg.com="https://boxy-svg.com" xmlns:boxy-svg.com="https://boxy-svg.com" boxy-svg.com:pinned="true" id="color-0">
      <stop style="stop-color: #2193b0;" offset="0" id="stop1"></stop>
      <stop style="stop-color: #6dd5ed;" offset="1" id="stop2"></stop>
    </linearGradient>
    <linearGradient id="color-0-0" href="#color-0" gradientUnits="userSpaceOnUse" x1="227.701" y1="181.344" x2="227.701" y2="273.747" gradientTransform="matrix(1.6643731,0,0,1.555587,-136.1332,-180.79116)"></linearGradient>
    <path id="path-0" d="M -631.253 204.957 C -586.603 238.489 -531.859 231.881 -488.578 238.96 L -487.778 238.157 C -487.374 237.618 -486.877 237.091 -486.474 236.552" style="fill: none;"></path>
    <path id="path-1" d="M -420.227 258.064 C -409.443 230.685 -397.372 226.101 -375.991 216.266 C -326.795 201.853 -284.819 198.884 -241.116 196.45 C -225.997 196.45 -224.335 195.953 -217.825 202.463 C -212.468 206.213 -206.045 208.643 -202.133 212.554 C -200.318 217.826 -199.014 222.716 -196.156 227.01 C -193.146 230.466 -191.687 233.131 -189.047 235.428 L -187.862 236.317 C -185.943 237.517 -183.867 238.967 -181.822 239.987" style="fill: none;"></path>
    <path id="path-2" d="M -477.537 356.121 C -472.527 346.394 -465.452 342.785 -457.529 337.118 L -456.048 336.227 C -440.254 329.721 -424.983 326.591 -408.313 323.558" style="fill: none;"></path>
    <path id="path-3" d="M -390.526 324.821 C -386.943 343.991 -381.198 363.571 -372.847 379.587 C -362.844 398.772 -383.795 355.138 -359.573 395.501 C -316.326 426.85 -273.657 433.803 -236.192 445.026 C -219.713 448.75 -208.316 452.574 -198.766 449.38 C -183.928 446.736 -167.562 448.507 -152.928 446.405 C -147.079 440.998 -127.754 437.174 -121.621 432.788 C -98.28 423.455 -91.624 420.863 -72.063 415.423 L -66.187 411.147 C -58.369 405.266 -57.933 396.008 -55.139 387.536" style="fill: none;"></path>
    <path id="text-path-0" d="M -690.8624877929688 384.2491340637207 Q -626.0890121459961 353.0806579589844 -561.3155364990234 384.2491340637207"></path>
    <path id="path-4" d="M -662.747 280.907 C -630.637 280.727 -598.715 273.368 -566.809 273.368 C -562.232 277.59 -557.605 281.42 -553.366 285.659 C -549.567 289.428 -548.233 294.606 -546.383 298.305 C -541.766 304.802 -541.772 299.769 -539.133 302.371 C -527.449 316.54 -520.251 327.067 -514.603 342.141 C -511.267 348.816 -510.935 355.608 -510.935 361.918 L -510.699 362.63 C -510.484 362.953 -510.192 363.229 -510.018 363.576" style="fill: none;"></path>
    <path id="path-5" d="M -400.402 192.941 C -395.798 191.085 -391.195 184.93 -387.612 182.539 C -382.143 179.257 -378.908 175.75 -374.845 173.713 L -372.89 173.06 C -368.487 171.589 -363.696 170.257 -359.442 168.549" style="fill: none;"></path>
    <path id="path-6" d="M -370.911 193.395 C -365.133 198.894 -331.32 224.532 -327.329 227.72 C -297.194 251.788 -296.613 251.501 -279.894 256.041 C -258.447 261.866 -236.271 256.132 -229.605 257.88 C -219.863 260.435 -216.794 257.94 -207.694 257.94 C -193.793 258.915 -202.202 257.727 -191.851 257.727 C -182.568 258.051 -184.085 252.091 -177.718 248.899 C -169.73 245.738 -161.469 241.731 -154.082 239.871 C -152.04 238.284 -149.999 235.961 -148.454 234.944 L -148.1 234.585 C -147.982 234.525 -147.863 234.819 -147.745 234.76" style="fill: none;"></path>
    <path id="path-7" d="M 17.83 355.7 C 17.83 361.221 18.099 366.373 18.983 371.678 C 20.317 379.225 22.668 383.447 25.76 387.57 L 26.927 389.126 C 27.592 389.791 28.565 390.688 29.078 391.458" style="fill: none;"></path>
    <path id="path-8" d="M 25.414 380.334 C 27.695 387.557 29.747 392.452 33.316 396.917 C 39.338 404.139 45.319 408.883 52.149 412.981 L 52.797 413.37 C 53.444 413.759 54.05 414.231 54.69 414.615" style="fill: none;"></path>
    <path id="path-9" d="M 54.858 414.952 C 61.314 420.033 65.677 425.46 70.223 429.33 C 80.738 435.696 89.641 436.778 99.235 439.972 C 104.852 441.154 107.611 441.411 110.418 442.394 C 116.714 444.911 124.379 447.487 130.551 447.487 C 133.464 448.07 135.836 448.493 138.069 449.129 C 143.847 450.538 148.497 448.843 152.951 447.739 C 158.953 446.415 163.79 443.593 168.977 442.439 L 171.261 441.608 C 172.645 441.145 174.309 440.6 175.436 440.03" style="fill: none;"></path>
    <path id="path-10" d="M -103.2 362.35 C -100.632 367.485 -97.755 372.125 -94.89 376.9 C -90.396 381.978 -87.703 384.851 -83.741 387.491 L -82.289 388.399 C -78.817 390.135 -75.556 392.421 -72.133 394.274" style="fill: none;"></path>
    <path id="path-11" d="M -101.215 377.168 C -90.881 387.502 -81.757 393.567 -71.387 399.79 C -63.095 405.856 -55.241 409.976 -46.813 413.517 C -41.08 415.494 -36.023 416.614 -30.82 417.914 C -23.091 420.341 -17.966 416.747 -12.473 414.633 C -6.958 412.601 -2.727 411.338 1.318 410.124 C 6.121 408.844 10.094 407.834 13.426 406.496 C 20.057 405.543 25.39 403.427 31.06 403.427 C 36.957 402.703 39.18 400.239 42.568 396.846 C 45.776 393.53 48.029 391.561 50.826 390.857 L 51.681 390.428 C 52.852 390.036 53.86 389.211 54.832 388.476" style="fill: none;"></path>
    <path id="path-12" d="M -88.189 453.861 C -71.816 477.991 -45.992 488.473 -24.53 497.207 C 33.119 520.668 93.449 525.585 154.72 531.475 C 194.779 533.434 205.255 534.788 216.523 525.949 C 221.022 521.977 224.665 519.117 228.086 515.691 C 235.903 509.238 239.329 507.048 246.742 507.868 L 249.39 508.088 C 253.438 508.399 257.529 508.957 261.59 508.957" style="fill: none;"></path>
    <path id="path-13" d="M -217.835 390.04 C -138.08 416.758 -141.148 415.807 -142.478 415.807 C -147.701 415.807 -152.926 416.287 -157.725 413.885 C -160.432 411.585 -158.77 409.581 -160.758 409.581 C -167.289 417.688 -157.627 420.186 -150.752 422.935 C -144.67 425.241 -139.788 428.143 -135.132 430.468 C -137.214 428.933 -144.191 426.881 -138.265 426.881 C -135.254 425.514 -140.511 423.126 -142.735 425.343 C -142.866 445.272 -120.731 456.644 -104.967 460.556 C -89.02 464.514 -99.684 460.604 -89.543 461.774 C -82.139 461.627 -81.255 461.485 -80.373 461.332 C -73.62 460.158 -75.887 459.81 -78.225 455.135 C -93.826 446.325 -106.769 442.668 -120.162 439.308 C -122.947 438.61 -125.748 437.958 -128.579 437.478 C -133.084 436.713 -133.569 436.549 -132.158 438.071 L -129.982 438.071 C -125.675 437.208 -120.428 437.622 -116.669 435.107" style="fill: none;"></path>
    <path id="path-14" d="M -252.972 288.661 C -247.149 298.783 -236.669 302.562 -227.825 307.278 C -207.832 315.508 -193.408 320.543 -177.223 320.543 C -176.174 319.952 -168.225 321.111 -166.981 320.903 C -154.288 320.722 -143.196 320.759 -132.166 320.759 C -125.739 319.115 -119.707 317.479 -113.535 316.105 C -108.27 314.986 -104.679 314.05 -101.061 313.32 C -97.363 312.041 -94.473 311.045 -91.312 310.253 C -87.403 309.157 -84.276 309.031 -80.734 309.031 C -76.641 308.833 -75.589 308.852 -73.475 307.793 L -73.216 307.701 L -73.138 307.701" style="fill: none;"></path>
    <path id="path-15" d="M -166.386 274.486 C -164.828 273.196 -162.772 273.55 -161.163 273.12 C -156.56 271.889 -151.962 270.641 -147.355 269.426 C -132.81 265.588 -117.923 262.576 -103.536 258.258 C -93.747 253.788 -83.132 255.19 -75.951 254.913 C -53.042 254.913 -38.588 257.042 -23.104 259.485 C -13.315 260.449 -6.073 260.581 -2.502 264.152 C 8.946 271.349 19.816 271.827 29.571 274.487 C 34.182 275.975 38.344 279.579 42.228 281.799 C 43.89 282.877 45.014 283.626 46.22 284.833 C 48.612 287.224 50.128 290.344 52.182 292.74 L 52.804 293.673 C 53.093 294.035 53.369 294.413 53.658 294.775" style="fill: none;"></path>
    <path id="text-path-1" d="M -502.260009765625 108.50467681884766 Q -379.31776428222656 76.97628784179688 -256.3755187988281 108.50467681884766"></path>
    <path id="text-path-2" d="M -465.3700256347656 14.27067756652832 Q -361.1416015625 -17.25771141052246 -256.9131774902344 14.27067756652832"></path>
    <path id="text-path-3" d="M 98.95899963378906 434.80510330200195 Q 241.71116638183594 398.5474548339844 384.4633331298828 434.80510330200195"></path>
    <path id="path-16" d="M 157.714 456.9 C 164.086 463.056 171.939 467.331 178.965 471.236 C 182.798 473.57 187.469 474.757 189.412 476.701 L 189.917 476.953" style="fill: none;"></path>
    <path id="path-17" d="M 128.331 447.308 C 235.056 567.165 399.384 497.913 412.714 446.164" style="fill: none;"></path>
  </defs>
  <g id="g1" transform="matrix(1.099284,0,0,1.1812335,-22.111157,-18.208645)" inkscape:export-filename="base_logo_surf_reader_no_text.png" inkscape:export-xdpi="96" inkscape:export-ydpi="96">
    <path style="fill:#ffffff;stroke:#ffffff;stroke-width:1.61315" d="m 51.413476,185.97232 397.139784,2.84515 C 439.45625,119.19097 353.25557,38.695551 258.30586,36.948633 134.73518,31.413855 51.92872,134.2366 51.413476,185.97232 Z" id="path2"></path>
    <path style="fill:url(#color-0-0);fill-rule:nonzero;stroke:#03045e;stroke-width:3.2263px;stroke-linecap:square;stroke-linejoin:round" d="m 38.477263,246.8673 c -3.231967,-19.81194 -3.118205,-32.35621 0.436615,-59.40008 l 235.509952,1.45293 c 28.76981,-5.28434 32.1406,-43.05709 -8.98826,-40.2835 36.17722,-10.22952 73.10053,3.9123 70.10442,42.19687 56.87885,-38.52567 6.42045,-83.46347 -65.64124,-67.98227 48.80729,-33.242885 126.89463,-19.36549 166.6367,33.17446 0.0519,0.0684 2.73513,4.59365 3.64013,6.01389 17.07821,26.7732 19.01036,57.91294 15.59439,84.17592" id="path3"></path>
    <ellipse style="fill:#ff9d1f;stroke:#ff7a12;stroke-width:3.2263px" cx="227.12877" cy="81.791542" rx="34.541168" ry="31.281298" id="ellipse3"></ellipse>
    <path style="fill:none;fill-rule:nonzero;stroke:#03045e;stroke-width:3.2263px;stroke-linejoin:round" d="m 296.12414,222.39637 c 8.85779,-0.2909 30.33058,-5.31544 36.38465,-15.94943 8.21708,19.48995 56.81025,21.05643 60.84352,-3.11117 10.28306,19.67818 59.68087,25.3825 61.1212,-1.99583" id="path4"></path>
    <path style="vector-effect:non-scaling-stroke;fill:#ff9d1f;stroke-width:1.61315" d="m 58.519771,305.40871 375.319049,0.24111 c 4.03158,-0.86024 18.98192,-55.86579 17.90626,-59.95387 l -411.51633,0.34223 c -1.67286,15.4952 17.697158,59.55253 18.291021,59.37053 z" id="path5"></path>
    <path style="fill:#ff7a12;stroke-width:1.61315" d="m 58.625169,305.55337 376.551911,-0.0436 C 381.89155,392.48732 356.75185,408.88476 264.73296,422.51638 172.71742,436.14645 78.107265,362.83785 58.625169,305.55337 Z" id="path6"></path>
    <g transform="matrix(1.4462257,1.4421643,-1.4206762,1.2319315,-87.813257,-452.49317)" id="g7">
      <path style="fill:#47b4cf;stroke:#03045e;stroke-width:2.47032px" d="m 404.66,222.872 c -5.759,0.431 -20.744,-86.159 8.72,-118.559 20.013,22.909 19.167,83.61 11.196,108.204 -2.141,6.605 -6.476,8.353 -8.735,9.143 -5.591,-0.144 -5.86,1.393 -11.181,1.212 z" id="path7"></path>
      <line style="fill:#47b4cf;stroke:#03045e;stroke-width:2.47032px" x1="413.33899" y1="105.504" x2="412.43799" y2="218.33501" id="line7"></line>
    </g>
    <line style="stroke:#03045e;stroke-width:4.83946px" x1="38.821869" y1="246.91084" x2="94.414268" y2="246.50487" id="line8"></line>
    <g transform="matrix(0.16364565,0,0,-0.15266995,-1861.1769,1913.6127)" fill="#000000" stroke="none" id="g8">
      <path style="fill:#03045e;stroke:#03045e;stroke-width:31.0585px;stroke-linecap:round;stroke-linejoin:round" d="m 12447.4,10514.5 c -119.888,-23.65 -203.65,-1.936 -214.345,2.588 -112.107,45.874 -103.216,58.137 -112.355,147.712 0,0 -16.7,201 -17,213.5 -0.4,12.3 -13.3,0.5 -13.3,0.5 6.6,-75.7 -135.8,-361.7 -143.8,-363 -94.6,-14.2 -156.1,-4.3 -155.3,-3.3 0,0 -17.7,17.5 -17.3,22.7 2,25.7 74.7,33.3 133.6,51.8 10.3,3.1 124.37,631.941 178.416,674.983 51.687,41.163 95.084,33.217 140.684,80.217 10.877,13.244 11.7,39.9 11.5,78.4 -74.4,112.5 -28.4,217.4 36.2,248 32.1,25.5 190.5,18.1 190.4,10.3 -43.8,-111.4 21.7,-200.9 30.8,-220.2 -12.2,3.1 -13.5,0 -31.3,1.9 -4.9,-53.6 0.09,-91.331 -9.309,-91.631 0,0 -41.084,-3.692 -70.684,0.608 -3.2,0.5 -0.507,-48.977 -0.507,-48.977 69,8.1 452.7,-228.2 443.4,-242.9 25.1,-7.7 2.6,-102 -34.7,-90.6 -1.4,-4 -298.9,103.1 -296,111.4 6,-9 -59.9,-271.1 -60.6,-269.7 135.224,78.272 184.002,166.72 229.3,191.7 21.523,11.869 80.6,-24.7 122.9,-39.3 8.8,-3 43.6,-156.2 50.3,-183.9 36.6,-152.3 58.1,-157.4 75.4,-178.9 15.9,-19.6 29.7,-28.3 58.6,-38.2 32.2,-11.3 61.6,-21 68.9,-23.2 12.2,-3.9 -57.7,-38 -90.5,-38.4 -12.5,-0.1 -66.7,-0.5 -115.2,4.2 -11.3,1 -26.6,34.2 -25.9,57.7 0.7,19.8 -6.2,31.8 -20.9,57.8 -24.6,43.7 -69.4,95.6 -85.6,130.2 -15.3,32.6 -18,47.7 -25.4,31.3 -90.5,-197.6 -198.749,-271.047 -230.4,-285.3 z" id="path8"></path>
    </g>
    <path style="fill:none;stroke:#ffffff;stroke-width:3.2263px;stroke-linecap:square" d="m 95.259078,247.37286 c 0.02181,-0.62689 0.341254,-1.44823 0.476768,-1.95226 0.250938,-0.93023 4.684004,-17.43656 6.151104,-23.11601 3.50296,-13.56004 8.46631,-26.21164 12.32895,-30.23594 3.34238,-2.83741 17.40609,-8.14039 19.34326,-10.46444" id="path9"></path>
    <path style="fill:none;stroke:#ffffff;stroke-width:3.2263px" d="m 186.15717,223.32194 c -3.49463,6.41213 -4.20892,18.01836 -7.51951,30.82552 -0.88159,3.41141 7.45591,-4.32765 28.44025,-23.09424 -0.30779,-0.96603 -12.40591,-4.56255 -20.92074,-7.73128 z" id="path10"></path>
    <line style="stroke:#03045e;stroke-width:4.83946px" x1="448.33835" y1="245.86478" x2="237.32408" y2="246.33456" id="line10"></line>
    <path style="fill:none;stroke:#ffffff;stroke-width:3.2263px;stroke-linecap:square" d="m 174.11424,182.95757 c 15.90053,6.96906 30.14825,13.92718 41.47181,20.27086 12.65686,7.09347 22.09345,13.16181 25.2401,18.14436 5.65259,8.95241 0.0904,16.18589 -4.93494,16.329 0,0 3.04628,5.21279 3.05966,9.44864" id="path11"></path>
    <ellipse style="fill:none;stroke:#ffffff;stroke-width:14.5184px" cx="247.98599" cy="226.66956" id="ellipse11" rx="214.12581" ry="199.11513">
      <title id="title11">back_ground_white</title>
    </ellipse>
    <ellipse style="fill:none;stroke:#03045e;stroke-width:6.45264px" cx="247.98599" cy="226.66956" id="ellipse12" rx="204.08865" ry="189.7816"></ellipse>
    <ellipse style="fill:none;stroke:#03045e;stroke-width:6.45264px" cx="247.98599" cy="226.66956" id="ellipse13" rx="219.14436" ry="203.78188"></ellipse>
  </g>
</svg>